<svg class="CK__Icon--large" viewBox="0 0 24 24" fill="none" xmlns="http://www.w3.org/2000/svg" aria-labelledby="Floor area-icon-title" style="width:16px;height:16px" stroke-width="1.25" id="Floor area-icon"><title id="Floor area-icon-title">Floor area</title><path fill-rule="evenodd" clip-rule="evenodd" d="M3.5 4A2.5 2.5 0 0 0 1 6.5v11A2.5 2.5 0 0 0 3.5 20h17a2.5 2.5 0 0 0 2.5-2.5v-11A2.5 2.5 0 0 0 20.5 4h-17ZM8 6.5V5H3.5A1.5 1.5 0 0 0 2 6.5V11h6V9.5a.5.5 0 0 1 1 0v4a.5.5 0 0 1-1 0V12H2v5.5A1.5 1.5 0 0 0 3.5 19H8v-2.5a.5.5 0 0 1 1 0V19h11.5a1.5 1.5 0 0 0 1.5-1.5V10h-9.5a.5.5 0 0 1 0-1H22V6.5A1.5 1.5 0 0 0 20.5 5H9v1.5a.5.5 0 0 1-1 0Z" fill="currentColor"></path></svg>