<svg class="CK__Icon--large" viewBox="0 0 24 24" fill="none" xmlns="http://www.w3.org/2000/svg" aria-labelledby="Land size-icon-title" style="width:16px;height:16px" stroke-width="1.25" id="Land size-icon"><title id="Land size-icon-title">Land size</title><path fill-rule="evenodd" clip-rule="evenodd" d="M21.5 1a.5.5 0 0 1 .5.5v2a.5.5 0 0 1-1 0V3H7v.5a.5.5 0 0 1-1 0v-2a.5.5 0 0 1 1 0V2h14v-.5a.5.5 0 0 1 .5-.5ZM6 8.5A2.5 2.5 0 0 1 8.5 6h11A2.5 2.5 0 0 1 22 8.5v11a2.5 2.5 0 0 1-2.5 2.5h-11A2.5 2.5 0 0 1 6 19.5v-11ZM8.5 7A1.5 1.5 0 0 0 7 8.5v11A1.5 1.5 0 0 0 8.5 21h11a1.5 1.5 0 0 0 1.5-1.5v-11A1.5 1.5 0 0 0 19.5 7h-11Zm-5 15a.5.5 0 0 0 0-1H3V7h.5a.5.5 0 0 0 0-1h-2a.5.5 0 0 0 0 1H2v14h-.5a.5.5 0 0 0 0 1h2Z" fill="currentColor"></path></svg>