<?xml version="1.0" encoding="UTF-8"?>
<svg xmlns="http://www.w3.org/2000/svg" viewBox="0 0 1000 1000">
  <defs>
    <style>
      .cls-1 {
        fill: #c2e4e4;
      }
      .cls-2 {
        fill: #231f20;
      }
    </style>
  </defs>
  <rect class="cls-1" width="1000" height="1000" rx="80" ry="80"/>
  <g>
    <path class="cls-2" d="M149.14,269.43h115.86c41.71,0,75.14,11.36,100.21,34.07,25.07,22.71,37.64,51.79,37.64,87.29,0,37.71-12.93,67.64-38.71,89.79-25.79,22.14-58.29,33.21-97.43,33.21h-48.36v125.71h-69.21v-370.07ZM218.36,457.79h39c25.29,0,44.07-6.07,56.57-18.14,12.43-12.07,18.64-28.36,18.64-48.86s-6.21-36-18.64-47.5c-12.43-11.5-30.71-17.29-54.93-17.29h-40.64v131.79Z"/>
    <path class="cls-2" d="M657,224.86c136.47,0,245.76,115.14,236.12,253.7-7.99,114.88-99.85,208.49-214.55,218.76-54.98,4.92-105.91-9.2-148.22-36.03l-171,171-59.14-59.14,168.86-168.36c-30.36-39.79-48.71-89.14-48.71-143.14-.07-130.93,105.79-236.79,236.64-236.79ZM662.8,280.66c-104.82-3.25-189.96,81.89-186.71,186.71,2.93,94.6,80.51,172.18,175.11,175.11,104.82,3.25,189.96-81.89,186.71-186.71-2.93-94.6-80.51-172.18-175.11-175.11Z"/>
    <path class="cls-2" d="M726,333.07v47.71c-19.57-11.71-40.43-17.57-62.57-17.57-12.29,0-21.86,2.71-28.71,8.21-6.93,5.5-10.36,12.5-10.36,21.14s3.71,15.71,11.14,21.29c7.43,5.64,18.57,11.79,33.43,18.57,10.43,4.71,18.93,8.79,25.43,12.29,6.5,3.5,13.64,8.43,21.29,14.64,7.71,6.29,13.43,13.79,17.21,22.5,3.79,8.71,5.64,18.71,5.64,29.93,0,23.43-8.43,42.14-25.21,56.14-16.79,13.93-38.93,20.93-66.29,20.93-29.71,0-54.36-5.57-73.93-16.79v-50.43c22.43,16.14,46.93,24.21,73.5,24.21,12,0,21.64-2.93,28.93-8.79,7.29-5.86,10.93-13.71,10.93-23.64,0-4.71-.93-8.86-2.71-12.5-1.86-3.64-5.57-7.29-11.14-10.93-5.64-3.64-9.93-6.29-12.93-7.79-3-1.57-9.21-4.43-18.57-8.57-2.64-1.29-4.57-2.21-5.86-2.71-9.64-4.43-17.5-8.43-23.43-11.93-6-3.5-12.5-8.29-19.57-14.29s-12.29-13.14-15.86-21.5c-3.5-8.36-5.29-17.86-5.29-28.57,0-22.43,8.29-40.43,24.86-53.93,16.57-13.57,38.5-20.36,65.86-20.36,24.79,0,46.14,4.29,64.14,12.93l.07-.21Z"/>
  </g>
</svg>